<?xml version="1.0" encoding="iso-8859-1"?>
<!-- Generator: Adobe Illustrator 19.0.0, SVG Export Plug-In . SVG Version: 6.00 Build 0)  -->
<svg version="1.1" id="Layer_1" xmlns="http://www.w3.org/2000/svg" xmlns:xlink="http://www.w3.org/1999/xlink" x="0px" y="0px"
	 viewBox="0 0 499.2 499.2" style="enable-background:new 0 0 499.2 499.2;" xml:space="preserve">
<circle style="fill:#73DD8A;" cx="249.6" cy="320.4" r="166.4"/>
<circle style="fill:#EAA315;" cx="166.4" cy="179.6" r="166.4"/>
<path style="fill:#8552B2;" d="M215.2,297.2c-64.8-64.8-64.8-170.4,0-236C280-3.6,385.6,0.4,447.2,58"/>
<path style="fill:#FFE000;" d="M249.6,323.6C224.8,338,196.8,346,166.4,346s-58.4-8-83.2-22.4c1.6,90.4,76,163.2,166.4,163.2
	S414.4,414,416,323.6C391.2,338,363.2,346,332.8,346C302.4,346,274.4,338,249.6,323.6z"/>
<path style="fill:#FF69BB;" d="M166.4,176.4c1.6-60,34.4-112,83.2-140.8c-24.8-14.4-52.8-22.4-83.2-22.4C74.4,13.2,0,87.6,0,179.6
	c0,61.6,33.6,115.2,83.2,144c0-1.6,0-2.4,0-4C83.2,258.8,116.8,205.2,166.4,176.4z"/>
<path style="fill:#EF3388;" d="M0,179.6c0,61.6,33.6,115.2,83.2,144c0-1.6,0-2.4,0-4c0-61.6,33.6-115.2,83.2-144
	c1.6-60,34.4-112,83.2-140.8c-24.8-14.4-52.8-22.4-83.2-22.4"/>
<path style="fill:#2EE5E5;" d="M499.2,179.6c0-92-74.4-166.4-166.4-166.4c-30.4,0-58.4,8-83.2,22.4c48.8,28,81.6,80.8,83.2,140.8
	c49.6,28.8,83.2,82.4,83.2,144c0,1.6,0,2.4,0,4C465.6,294.8,499.2,241.2,499.2,179.6z"/>
<path style="fill:#1FC5C9;" d="M332.8,13.2c-30.4,0-58.4,8-83.2,22.4c48.8,28,81.6,80.8,83.2,140.8c49.6,28.8,83.2,82.4,83.2,144
	c0,1.6,0,2.4,0,4c49.6-28.8,83.2-82.4,83.2-144"/>
<path style="fill:#3F3E3B;" d="M166.4,176.4c0,1.6,0,2.4,0,4c0,61.6,33.6,115.2,83.2,144c49.6-28.8,83.2-82.4,83.2-144
	c0-1.6,0-2.4,0-4C308,162,280,154,249.6,154S191.2,162,166.4,176.4z"/>
<path style="fill:#F4C500;" d="M378.4,426c22.4-24.8,36.8-63.2,37.6-104c-24.8,14.4-52.8,23.2-83.2,23.2s-58.4-8-83.2-22.4
	C224.8,338,196.8,346,166.4,346s-58.4-9.6-83.2-24c0.8,40,15.2,80,37.6,104H378.4z"/>
<g>
	<circle style="fill:#FFDB2C;" cx="220" cy="222" r="4.8"/>
	<circle style="fill:#FFDB2C;" cx="249.6" cy="222" r="4.8"/>
	<circle style="fill:#FFDB2C;" cx="279.2" cy="222" r="4.8"/>
</g>
<g>
</g>
<g>
</g>
<g>
</g>
<g>
</g>
<g>
</g>
<g>
</g>
<g>
</g>
<g>
</g>
<g>
</g>
<g>
</g>
<g>
</g>
<g>
</g>
<g>
</g>
<g>
</g>
<g>
</g>
</svg>
