<?xml version="1.0" encoding="iso-8859-1"?>
<!-- Generator: Adobe Illustrator 19.0.0, SVG Export Plug-In . SVG Version: 6.00 Build 0)  -->
<svg version="1.1" id="Layer_1" xmlns="http://www.w3.org/2000/svg" xmlns:xlink="http://www.w3.org/1999/xlink" x="0px" y="0px"
	 viewBox="0 0 512 512" style="enable-background:new 0 0 512 512;" xml:space="preserve">
<g>
	<g>
		<path d="M256.005,13.477c-84.682,0-153.734,68.227-155.075,152.594c0.535-0.164,1.073-0.318,1.61-0.477
			c0.341-0.101,0.681-0.204,1.022-0.303c1.366-0.398,2.733-0.781,4.107-1.146c0.166-0.043,0.331-0.084,0.497-0.127
			c1.214-0.318,2.43-0.623,3.651-0.917c0.389-0.094,0.777-0.186,1.167-0.276c1.147-0.268,2.296-0.526,3.448-0.771
			c0.253-0.055,0.506-0.112,0.76-0.166c1.377-0.288,2.757-0.557,4.139-0.813c0.347-0.064,0.695-0.124,1.044-0.186
			c1.091-0.195,2.183-0.38,3.278-0.555c0.385-0.062,0.769-0.124,1.154-0.184c1.396-0.214,2.793-0.417,4.195-0.599
			c0.112-0.014,0.225-0.026,0.337-0.041c1.298-0.167,2.599-0.316,3.902-0.454c0.404-0.042,0.808-0.084,1.213-0.124
			c1.139-0.113,2.278-0.216,3.42-0.309c0.303-0.024,0.605-0.052,0.907-0.076c1.408-0.106,2.818-0.197,4.231-0.271
			c0.333-0.018,0.668-0.03,1.001-0.045c1.128-0.054,2.258-0.097,3.389-0.13c0.402-0.012,0.803-0.024,1.205-0.033
			c1.43-0.032,2.863-0.055,4.297-0.055c1.176,0,2.351,0.013,3.525,0.036c0.389,0.007,0.778,0.022,1.167,0.032
			c0.787,0.02,1.574,0.041,2.361,0.072c0.46,0.018,0.921,0.042,1.382,0.064c0.715,0.033,1.429,0.067,2.144,0.108
			c0.487,0.028,0.974,0.062,1.462,0.094c0.689,0.045,1.379,0.093,2.068,0.146c0.497,0.038,0.993,0.081,1.49,0.123
			c0.68,0.059,1.36,0.119,2.039,0.186c0.497,0.047,0.993,0.098,1.49,0.149c0.684,0.072,1.368,0.148,2.051,0.228
			c0.487,0.057,0.973,0.113,1.46,0.174c0.701,0.087,1.402,0.181,2.102,0.276c0.464,0.064,0.929,0.125,1.393,0.191
			c0.74,0.106,1.479,0.221,2.218,0.336c0.423,0.066,0.846,0.128,1.269,0.198c0.85,0.138,1.698,0.287,2.546,0.437
			c0.307,0.055,0.616,0.105,0.923,0.16c1.166,0.212,2.33,0.435,3.49,0.67c0.07,0.014,0.138,0.03,0.208,0.043
			c1.082,0.22,2.161,0.449,3.239,0.688c0.352,0.078,0.704,0.163,1.055,0.242c0.793,0.181,1.588,0.362,2.379,0.554
			c0.421,0.102,0.841,0.209,1.262,0.314c0.722,0.18,1.442,0.36,2.162,0.548c0.446,0.116,0.89,0.237,1.335,0.357
			c0.693,0.187,1.387,0.377,2.078,0.57c0.453,0.127,0.906,0.258,1.359,0.39c0.683,0.198,1.367,0.4,2.048,0.606
			c0.451,0.136,0.902,0.273,1.353,0.414c0.685,0.212,1.369,0.43,2.051,0.651c0.439,0.141,0.878,0.283,1.316,0.428
			c0.703,0.232,1.402,0.471,2.101,0.712c0.414,0.142,0.828,0.283,1.24,0.427c0.747,0.262,1.491,0.534,2.235,0.805
			c0.36,0.132,0.722,0.26,1.081,0.395c0.887,0.331,1.771,0.671,2.654,1.015c0.212,0.083,0.425,0.161,0.636,0.245
			c1.108,0.437,2.212,0.884,3.313,1.342c0.125,0.052,0.249,0.107,0.374,0.16c0.958,0.401,1.913,0.81,2.865,1.226
			c0.329,0.144,0.656,0.295,0.985,0.441c0.744,0.332,1.487,0.665,2.227,1.006c0.391,0.181,0.779,0.365,1.169,0.548
			c0.673,0.316,1.345,0.634,2.015,0.959c0.417,0.202,0.832,0.408,1.248,0.613c0.64,0.316,1.278,0.634,1.914,0.957
			c0.425,0.216,0.849,0.435,1.273,0.654c0.625,0.323,1.248,0.65,1.868,0.981c0.424,0.226,0.847,0.452,1.269,0.68
			c0.621,0.336,1.239,0.678,1.856,1.021c0.413,0.23,0.826,0.459,1.237,0.692c0.63,0.357,1.257,0.721,1.882,1.086
			c0.392,0.228,0.784,0.454,1.174,0.685c0.664,0.394,1.323,0.795,1.982,1.197c0.344,0.21,0.69,0.417,1.034,0.629
			c0.803,0.498,1.601,1.003,2.396,1.513c0.118,0.076,0.237,0.148,0.355,0.224l0.297-0.218l0.297,0.218
			c0.118-0.076,0.237-0.148,0.355-0.224c0.795-0.51,1.593-1.015,2.396-1.513c0.343-0.212,0.689-0.419,1.034-0.629
			c0.659-0.402,1.318-0.803,1.982-1.197c0.39-0.231,0.782-0.457,1.174-0.685c0.626-0.365,1.253-0.729,1.882-1.086
			c0.411-0.233,0.824-0.462,1.236-0.692c0.617-0.343,1.235-0.685,1.856-1.021c0.422-0.229,0.845-0.455,1.268-0.68
			c0.622-0.331,1.246-0.658,1.871-0.982c0.422-0.218,0.845-0.436,1.269-0.652c0.637-0.323,1.276-0.642,1.917-0.959
			c0.415-0.205,0.83-0.41,1.247-0.612c0.669-0.324,1.341-0.642,2.015-0.959c0.39-0.183,0.778-0.368,1.169-0.548
			c0.74-0.341,1.483-0.674,2.227-1.006c0.328-0.146,0.655-0.296,0.985-0.441c0.951-0.418,1.907-0.826,2.865-1.226
			c0.125-0.052,0.249-0.108,0.374-0.16c1.1-0.458,2.203-0.905,3.313-1.342c0.211-0.084,0.425-0.162,0.636-0.245
			c0.882-0.344,1.766-0.685,2.654-1.015c0.359-0.134,0.721-0.262,1.081-0.395c0.744-0.273,1.488-0.543,2.235-0.805
			c0.413-0.145,0.827-0.286,1.24-0.427c0.699-0.24,1.399-0.479,2.102-0.712c0.438-0.145,0.877-0.287,1.316-0.428
			c0.683-0.221,1.367-0.438,2.051-0.651c0.45-0.139,0.901-0.277,1.353-0.414c0.681-0.206,1.364-0.407,2.048-0.606
			c0.452-0.131,0.905-0.261,1.359-0.39c0.691-0.195,1.385-0.384,2.078-0.57c0.445-0.12,0.89-0.24,1.335-0.357
			c0.72-0.189,1.44-0.369,2.162-0.548c0.421-0.105,0.841-0.212,1.262-0.314c0.791-0.191,1.585-0.373,2.379-0.554
			c0.352-0.081,0.703-0.164,1.055-0.242c1.078-0.239,2.157-0.468,3.239-0.688c0.07-0.014,0.138-0.029,0.208-0.043
			c1.162-0.234,2.325-0.457,3.49-0.67c0.307-0.057,0.615-0.106,0.922-0.161c0.848-0.149,1.697-0.298,2.548-0.437
			c0.422-0.069,0.844-0.131,1.266-0.197c0.739-0.115,1.479-0.23,2.219-0.336c0.463-0.067,0.928-0.128,1.392-0.191
			c0.701-0.095,1.401-0.189,2.103-0.276c0.487-0.061,0.973-0.117,1.461-0.174c0.682-0.08,1.366-0.155,2.05-0.228
			c0.497-0.051,0.993-0.102,1.49-0.149c0.679-0.066,1.359-0.127,2.039-0.186c0.497-0.042,0.993-0.085,1.49-0.123
			c0.688-0.054,1.378-0.101,2.068-0.146c0.487-0.032,0.974-0.066,1.462-0.094c0.715-0.042,1.429-0.076,2.144-0.108
			c0.46-0.021,0.921-0.045,1.382-0.064c0.786-0.03,1.574-0.051,2.361-0.072c0.389-0.01,0.778-0.024,1.167-0.032
			c1.175-0.023,2.35-0.036,3.525-0.036c1.435,0,2.867,0.022,4.297,0.055c0.402,0.009,0.803,0.021,1.205,0.033
			c1.132,0.033,2.261,0.077,3.388,0.13c0.334,0.016,0.668,0.028,1.002,0.045c1.413,0.075,2.823,0.166,4.23,0.272
			c0.303,0.023,0.605,0.051,0.907,0.076c1.142,0.093,2.282,0.195,3.42,0.309c0.405,0.04,0.808,0.081,1.213,0.124
			c1.303,0.138,2.604,0.288,3.902,0.454c0.112,0.015,0.225,0.026,0.337,0.041c1.401,0.182,2.799,0.385,4.194,0.599
			c0.386,0.06,0.77,0.122,1.156,0.184c1.094,0.175,2.186,0.36,3.277,0.555c0.348,0.063,0.696,0.122,1.044,0.186
			c1.383,0.255,2.763,0.526,4.139,0.813c0.253,0.054,0.507,0.111,0.76,0.166c1.152,0.245,2.3,0.503,3.448,0.771
			c0.39,0.091,0.778,0.183,1.167,0.276c1.218,0.294,2.435,0.598,3.648,0.915c0.167,0.043,0.334,0.084,0.501,0.128
			c1.373,0.364,2.74,0.749,4.106,1.145c0.341,0.1,0.681,0.203,1.022,0.304c0.537,0.159,1.074,0.314,1.61,0.477
			C409.734,81.704,340.686,13.477,256.005,13.477z"/>
	</g>
</g>
<g>
	<g>
		<path d="M436.614,210.342c-0.136,0.588-0.291,1.172-0.433,1.758c-0.163,0.671-0.325,1.341-0.495,2.01
			c-0.317,1.249-0.651,2.49-0.993,3.73c-0.161,0.585-0.317,1.174-0.484,1.757c-0.482,1.682-0.986,3.354-1.515,5.017
			c-0.039,0.124-0.075,0.25-0.114,0.374c-0.571,1.784-1.175,3.555-1.8,5.318c-0.197,0.554-0.406,1.103-0.608,1.655
			c-0.442,1.21-0.891,2.417-1.358,3.617c-0.253,0.652-0.515,1.3-0.775,1.948c-0.445,1.108-0.9,2.211-1.367,3.309
			c-0.277,0.652-0.555,1.304-0.84,1.953c-0.497,1.133-1.008,2.258-1.527,3.379c-0.268,0.579-0.53,1.161-0.803,1.738
			c-0.687,1.446-1.395,2.883-2.119,4.31c-0.118,0.233-0.229,0.469-0.348,0.701c-0.843,1.644-1.713,3.273-2.603,4.89
			c-0.286,0.52-0.584,1.032-0.875,1.548c-0.624,1.107-1.254,2.211-1.9,3.306c-0.358,0.607-0.724,1.209-1.089,1.811
			c-0.61,1.007-1.228,2.008-1.857,3.003c-0.383,0.607-0.767,1.211-1.158,1.813c-0.659,1.016-1.331,2.023-2.01,3.027
			c-0.368,0.544-0.731,1.091-1.104,1.63c-0.867,1.254-1.753,2.495-2.652,3.727c-0.196,0.268-0.384,0.542-0.579,0.808
			c-1.093,1.483-2.21,2.946-3.346,4.397c-0.357,0.455-0.725,0.902-1.086,1.354c-0.801,1.003-1.608,2.001-2.43,2.987
			c-0.449,0.54-0.906,1.073-1.362,1.608c-0.763,0.895-1.534,1.785-2.314,2.666c-0.477,0.539-0.956,1.076-1.439,1.609
			c-0.811,0.894-1.633,1.778-2.462,2.658c-0.455,0.482-0.905,0.968-1.367,1.446c-1.03,1.07-2.075,2.123-3.131,3.168
			c-0.268,0.265-0.529,0.537-0.798,0.8c-1.322,1.293-2.666,2.565-4.027,3.819c-0.409,0.377-0.827,0.742-1.24,1.115
			c-0.973,0.881-1.952,1.756-2.945,2.617c-0.526,0.456-1.059,0.905-1.591,1.356c-0.909,0.771-1.825,1.534-2.75,2.288
			c-0.557,0.454-1.117,0.906-1.681,1.355c-0.951,0.757-1.912,1.502-2.879,2.241c-0.532,0.406-1.06,0.817-1.596,1.217
			c-1.172,0.876-2.359,1.734-3.554,2.584c-0.337,0.239-0.667,0.487-1.005,0.724c-1.528,1.071-3.076,2.119-4.638,3.145
			c-0.451,0.296-0.911,0.581-1.367,0.874c-1.131,0.729-2.268,1.45-3.417,2.156c-0.598,0.366-1.202,0.725-1.804,1.085
			c-1.034,0.618-2.073,1.228-3.121,1.828c-0.635,0.363-1.272,0.724-1.913,1.08c-1.067,0.592-2.142,1.173-3.222,1.746
			c-0.61,0.323-1.217,0.651-1.832,0.968c-0.13,0.067-0.258,0.138-0.389,0.205l0.04,0.361l-0.333,0.146
			c0.008,0.161,0.01,0.322,0.018,0.483c0.03,0.645,0.049,1.289,0.073,1.935c0.046,1.27,0.083,2.539,0.103,3.808
			c0.011,0.696,0.017,1.392,0.02,2.088c0.005,1.247-0.004,2.491-0.023,3.736c-0.01,0.67-0.018,1.34-0.036,2.01
			c-0.037,1.388-0.095,2.772-0.164,4.156c-0.025,0.505-0.04,1.009-0.069,1.514c-0.108,1.877-0.242,3.752-0.407,5.621
			c-0.033,0.382-0.079,0.761-0.115,1.143c-0.14,1.488-0.294,2.973-0.469,4.454c-0.078,0.656-0.168,1.31-0.252,1.965
			c-0.157,1.214-0.323,2.427-0.505,3.638c-0.106,0.708-0.217,1.414-0.331,2.121c-0.191,1.18-0.395,2.356-0.608,3.531
			c-0.124,0.685-0.247,1.372-0.379,2.056c-0.247,1.283-0.515,2.56-0.788,3.836c-0.119,0.553-0.229,1.109-0.353,1.661
			c-0.405,1.801-0.833,3.595-1.29,5.382c-0.099,0.388-0.21,0.771-0.312,1.157c-0.371,1.412-0.754,2.821-1.158,4.224
			c-0.189,0.654-0.389,1.304-0.584,1.956c-0.342,1.139-0.69,2.275-1.054,3.407c-0.225,0.699-0.455,1.397-0.687,2.093
			c-0.366,1.097-0.745,2.19-1.132,3.28c-0.242,0.681-0.482,1.363-0.732,2.04c-0.431,1.172-0.88,2.337-1.334,3.498
			c-0.223,0.571-0.438,1.145-0.667,1.713c-0.682,1.696-1.387,3.383-2.119,5.058c-0.155,0.356-0.323,0.707-0.48,1.062
			c-0.596,1.339-1.201,2.673-1.828,3.998c-0.295,0.622-0.601,1.238-0.901,1.857c-0.515,1.059-1.036,2.114-1.571,3.162
			c-0.338,0.662-0.681,1.321-1.028,1.979c-0.532,1.012-1.074,2.02-1.625,3.023c-0.353,0.643-0.706,1.286-1.066,1.925
			c-0.605,1.071-1.225,2.132-1.851,3.192c-0.321,0.543-0.635,1.091-0.962,1.631c-0.948,1.567-1.915,3.122-2.908,4.661
			c-0.177,0.274-0.363,0.542-0.542,0.815c-0.839,1.284-1.691,2.561-2.562,3.824c-0.38,0.55-0.77,1.093-1.156,1.64
			c-0.694,0.985-1.395,1.965-2.109,2.936c-0.432,0.587-0.87,1.171-1.309,1.753c-0.703,0.934-1.417,1.861-2.139,2.782
			c-0.443,0.566-0.886,1.131-1.336,1.693c-0.787,0.981-1.59,1.951-2.398,2.917c-0.395,0.472-0.783,0.949-1.184,1.417
			c-1.207,1.413-2.433,2.813-3.684,4.192c-0.119,0.131-0.243,0.257-0.362,0.389c-1.146,1.255-2.309,2.494-3.491,3.718
			c-0.434,0.45-0.879,0.891-1.318,1.337c-0.889,0.903-1.785,1.8-2.694,2.686c-0.503,0.49-1.01,0.974-1.519,1.458
			c-0.433,0.412-0.856,0.833-1.293,1.24c23.044,12.82,49.005,19.586,75.238,19.589c0.002,0,0.006,0,0.008,0
			c26.778,0,53.256-6.96,76.576-20.133c24-13.557,44.018-33.419,57.887-57.44C533.598,347.601,509.03,253.68,436.614,210.342z"/>
	</g>
</g>
<g>
	<g>
		<path d="M357.097,188.296c-26.339,0-52.539,6.858-75.519,19.563c0.206,0.192,0.401,0.394,0.605,0.585
			c1.334,1.256,2.652,2.526,3.946,3.82c0.146,0.146,0.298,0.289,0.443,0.435c1.417,1.426,2.803,2.881,4.172,4.352
			c0.372,0.4,0.74,0.804,1.108,1.208c1.12,1.225,2.224,2.466,3.311,3.723c0.272,0.314,0.548,0.623,0.818,0.939
			c1.302,1.527,2.579,3.077,3.831,4.647c0.299,0.374,0.589,0.754,0.885,1.13c1.013,1.291,2.011,2.596,2.991,3.915
			c0.303,0.408,0.61,0.814,0.909,1.224c1.192,1.632,2.364,3.283,3.505,4.959c0.19,0.278,0.372,0.562,0.56,0.842
			c0.973,1.444,1.926,2.906,2.861,4.382c0.296,0.466,0.59,0.933,0.882,1.402c1.085,1.746,2.154,3.505,3.187,5.294
			c0.721,1.249,1.421,2.506,2.112,3.767c0.195,0.355,0.387,0.712,0.578,1.068c0.539,0.999,1.068,2.003,1.588,3.009
			c0.154,0.3,0.313,0.599,0.465,0.899c0.645,1.265,1.275,2.536,1.888,3.812c0.133,0.278,0.262,0.556,0.394,0.835
			c0.493,1.036,0.974,2.076,1.446,3.12c0.169,0.372,0.337,0.745,0.503,1.118c0.536,1.205,1.061,2.413,1.57,3.627
			c0.042,0.101,0.087,0.201,0.129,0.302c0.547,1.31,1.073,2.627,1.589,3.949c0.141,0.36,0.279,0.723,0.417,1.085
			c0.399,1.042,0.788,2.087,1.168,3.135c0.12,0.331,0.242,0.661,0.36,0.993c0.472,1.328,0.932,2.663,1.374,4.001
			c0.082,0.246,0.157,0.495,0.238,0.741c0.364,1.119,0.717,2.243,1.06,3.369c0.118,0.389,0.235,0.777,0.351,1.166
			c0.354,1.194,0.697,2.391,1.028,3.592c0.048,0.175,0.1,0.349,0.147,0.525c0.37,1.364,0.721,2.732,1.06,4.104
			c0.091,0.367,0.178,0.736,0.265,1.104c0.127,0.529,0.259,1.056,0.382,1.587c37.925-22.771,64.617-60.932,72.753-104.53
			C391.963,191.252,374.736,188.296,357.097,188.296z"/>
	</g>
</g>
<g>
	<g>
		<path d="M229.161,477.688c-0.508-0.483-1.014-0.967-1.516-1.455c-0.909-0.886-1.806-1.785-2.696-2.688
			c-0.439-0.446-0.883-0.886-1.317-1.336c-1.182-1.224-2.346-2.464-3.491-3.718c-0.119-0.13-0.243-0.257-0.362-0.389
			c-1.252-1.379-2.477-2.779-3.684-4.192c-0.4-0.468-0.788-0.946-1.184-1.417c-0.808-0.966-1.611-1.936-2.398-2.917
			c-0.45-0.561-0.893-1.126-1.336-1.693c-0.722-0.922-1.435-1.848-2.139-2.782c-0.439-0.582-0.877-1.166-1.309-1.753
			c-0.714-0.971-1.414-1.952-2.109-2.936c-0.386-0.547-0.776-1.089-1.156-1.64c-0.871-1.264-1.723-2.54-2.562-3.824
			c-0.179-0.273-0.364-0.541-0.542-0.815c-0.994-1.539-1.962-3.096-2.91-4.662c-0.326-0.538-0.638-1.084-0.958-1.625
			c-0.627-1.061-1.249-2.124-1.854-3.197c-0.36-0.639-0.713-1.282-1.066-1.924c-0.551-1.003-1.093-2.011-1.625-3.023
			c-0.346-0.658-0.689-1.317-1.028-1.979c-0.535-1.049-1.056-2.104-1.571-3.162c-0.301-0.619-0.608-1.235-0.901-1.857
			c-0.627-1.325-1.232-2.659-1.828-3.998c-0.157-0.355-0.325-0.706-0.48-1.062c-0.732-1.674-1.435-3.362-2.119-5.058
			c-0.229-0.568-0.443-1.142-0.667-1.713c-0.454-1.162-0.903-2.327-1.334-3.498c-0.249-0.678-0.491-1.36-0.732-2.04
			c-0.387-1.09-0.765-2.183-1.132-3.28c-0.232-0.696-0.463-1.394-0.687-2.093c-0.363-1.133-0.713-2.271-1.055-3.412
			c-0.195-0.649-0.395-1.297-0.582-1.949c-0.405-1.404-0.788-2.814-1.16-4.228c-0.101-0.386-0.212-0.768-0.311-1.155
			c-0.457-1.786-0.885-3.58-1.29-5.382c-0.124-0.552-0.234-1.108-0.353-1.661c-0.275-1.276-0.541-2.553-0.788-3.836
			c-0.132-0.684-0.254-1.37-0.378-2.056c-0.213-1.175-0.417-2.351-0.608-3.531c-0.114-0.706-0.225-1.412-0.331-2.121
			c-0.182-1.21-0.347-2.423-0.505-3.638c-0.085-0.655-0.175-1.308-0.252-1.965c-0.176-1.481-0.329-2.966-0.469-4.454
			c-0.036-0.382-0.082-0.761-0.115-1.143c-0.164-1.869-0.299-3.744-0.407-5.621c-0.029-0.504-0.044-1.008-0.069-1.512
			c-0.069-1.385-0.126-2.771-0.164-4.16c-0.018-0.667-0.025-1.335-0.036-2.004c-0.019-1.246-0.028-2.492-0.023-3.741
			c0.003-0.695,0.009-1.391,0.02-2.087c0.02-1.269,0.057-2.539,0.103-3.808c0.023-0.645,0.042-1.289,0.073-1.935
			c0.007-0.162,0.01-0.322,0.018-0.484l-0.333-0.146l0.04-0.361c-0.13-0.067-0.258-0.138-0.389-0.205
			c-0.615-0.317-1.222-0.645-1.833-0.968c-1.081-0.573-2.157-1.154-3.224-1.747c-0.638-0.355-1.274-0.714-1.907-1.076
			c-1.051-0.601-2.092-1.213-3.129-1.833c-0.601-0.358-1.202-0.716-1.798-1.081c-1.15-0.706-2.286-1.427-3.418-2.157
			c-0.454-0.293-0.915-0.577-1.367-0.874c-1.563-1.025-3.109-2.072-4.636-3.143c-0.343-0.24-0.678-0.492-1.02-0.735
			c-1.189-0.845-2.37-1.7-3.537-2.571c-0.54-0.403-1.071-0.816-1.606-1.224c-0.964-0.737-1.922-1.479-2.871-2.234
			c-0.565-0.45-1.126-0.904-1.687-1.361c-0.921-0.751-1.833-1.511-2.738-2.278c-0.536-0.454-1.072-0.906-1.602-1.366
			c-0.984-0.854-1.955-1.722-2.921-2.595c-0.421-0.38-0.849-0.755-1.266-1.14c-1.358-1.251-2.698-2.519-4.017-3.809
			c-0.281-0.275-0.552-0.558-0.832-0.835c-1.044-1.034-2.078-2.075-3.097-3.133c-0.466-0.484-0.924-0.978-1.385-1.468
			c-0.821-0.871-1.637-1.747-2.441-2.634c-0.489-0.539-0.973-1.082-1.456-1.626c-0.774-0.875-1.54-1.757-2.297-2.647
			c-0.461-0.541-0.923-1.08-1.377-1.625c-0.814-0.977-1.612-1.965-2.405-2.958c-0.368-0.461-0.744-0.917-1.108-1.382
			c-1.133-1.446-2.248-2.906-3.337-4.385c-0.21-0.284-0.41-0.574-0.617-0.86c-0.885-1.215-1.758-2.439-2.614-3.674
			c-0.379-0.548-0.747-1.103-1.12-1.654c-0.672-0.995-1.339-1.993-1.992-3.001c-0.395-0.609-0.783-1.22-1.171-1.834
			c-0.624-0.986-1.236-1.978-1.841-2.978c-0.369-0.609-0.739-1.216-1.1-1.83c-0.642-1.088-1.269-2.186-1.888-3.286
			c-0.295-0.523-0.596-1.04-0.884-1.565c-0.889-1.615-1.758-3.241-2.6-4.883c-0.124-0.241-0.239-0.487-0.361-0.729
			c-0.719-1.417-1.421-2.842-2.103-4.279c-0.278-0.584-0.543-1.174-0.815-1.76c-0.516-1.115-1.024-2.234-1.518-3.36
			c-0.286-0.651-0.564-1.304-0.843-1.959c-0.466-1.098-0.922-2.201-1.367-3.309c-0.26-0.647-0.521-1.294-0.773-1.944
			c-0.467-1.201-0.917-2.409-1.36-3.622c-0.201-0.551-0.41-1.099-0.606-1.652c-0.625-1.763-1.228-3.535-1.8-5.319
			c-0.039-0.123-0.074-0.247-0.113-0.369c-0.53-1.666-1.035-3.343-1.518-5.027c-0.166-0.578-0.32-1.162-0.48-1.742
			c-0.344-1.246-0.679-2.493-0.998-3.748c-0.169-0.662-0.329-1.326-0.491-1.991c-0.143-0.59-0.299-1.178-0.436-1.77
			C2.971,253.679-21.598,347.601,20.747,420.946c13.866,24.018,33.884,43.88,57.888,57.436
			c23.322,13.172,49.804,20.136,76.584,20.137c0.002,0,0.005,0,0.007,0c26.227,0,52.183-6.767,75.23-19.589
			C230.018,478.523,229.594,478.101,229.161,477.688z"/>
	</g>
</g>
<g>
	<g>
		<path d="M154.899,188.295c-17.638,0-34.866,2.956-51.358,8.799c8.136,43.599,34.828,81.76,72.749,104.53
			c0.126-0.53,0.258-1.058,0.385-1.586c0.089-0.368,0.175-0.737,0.266-1.104c0.338-1.372,0.689-2.74,1.06-4.104
			c0.047-0.176,0.099-0.349,0.147-0.525c0.33-1.201,0.673-2.398,1.028-3.592c0.115-0.39,0.233-0.778,0.351-1.166
			c0.342-1.126,0.695-2.25,1.06-3.369c0.081-0.247,0.157-0.495,0.238-0.741c0.442-1.338,0.9-2.672,1.374-4.001
			c0.118-0.332,0.24-0.662,0.36-0.993c0.38-1.049,0.769-2.093,1.168-3.135c0.138-0.361,0.276-0.724,0.417-1.085
			c0.516-1.321,1.042-2.637,1.589-3.949c0.042-0.101,0.087-0.201,0.129-0.302c0.509-1.214,1.034-2.421,1.57-3.627
			c0.166-0.373,0.334-0.746,0.503-1.118c0.472-1.044,0.955-2.083,1.446-3.12c0.132-0.278,0.26-0.557,0.394-0.835
			c0.614-1.277,1.243-2.547,1.888-3.812c0.152-0.301,0.311-0.6,0.465-0.899c0.52-1.006,1.049-2.01,1.588-3.009
			c0.192-0.356,0.384-0.713,0.578-1.068c0.69-1.262,1.391-2.518,2.112-3.767c1.033-1.789,2.102-3.548,3.187-5.294
			c0.292-0.469,0.586-0.936,0.882-1.402c0.936-1.476,1.888-2.937,2.861-4.382c0.188-0.28,0.37-0.564,0.56-0.842
			c1.142-1.676,2.312-3.327,3.505-4.959c0.3-0.411,0.606-0.817,0.909-1.224c0.98-1.32,1.977-2.625,2.991-3.915
			c0.296-0.376,0.587-0.756,0.885-1.13c1.254-1.571,2.529-3.12,3.831-4.647c0.27-0.316,0.546-0.625,0.818-0.939
			c1.087-1.257,2.19-2.497,3.311-3.722c0.368-0.403,0.736-0.807,1.108-1.208c1.369-1.472,2.755-2.926,4.172-4.352
			c0.146-0.146,0.297-0.289,0.443-0.435c1.294-1.294,2.612-2.565,3.945-3.82c0.205-0.192,0.4-0.394,0.605-0.585
			C207.437,195.152,181.237,188.295,154.899,188.295z"/>
	</g>
</g>
<g>
	<g>
		<path d="M308.604,346.356c-0.375,0.111-0.751,0.224-1.126,0.333c-1.352,0.392-2.707,0.77-4.067,1.129
			c-0.183,0.048-0.365,0.092-0.548,0.14c-1.2,0.314-2.404,0.614-3.61,0.902c-0.394,0.095-0.788,0.188-1.183,0.279
			c-1.15,0.268-2.302,0.524-3.458,0.769c-0.249,0.053-0.499,0.11-0.749,0.161c-1.385,0.288-2.774,0.558-4.166,0.814
			c-0.336,0.063-0.674,0.119-1.011,0.18c-1.108,0.197-2.219,0.385-3.33,0.561c-0.376,0.06-0.752,0.121-1.128,0.178
			c-1.406,0.215-2.815,0.418-4.227,0.601c-0.096,0.012-0.193,0.022-0.29,0.035c-1.319,0.169-2.642,0.319-3.967,0.458
			c-0.398,0.042-0.796,0.082-1.195,0.121c-1.152,0.114-2.305,0.217-3.461,0.31c-0.298,0.024-0.594,0.051-0.891,0.074
			c-1.416,0.106-2.834,0.197-4.255,0.272c-0.334,0.018-0.669,0.03-1.004,0.045c-1.131,0.054-2.266,0.097-3.4,0.13
			c-0.407,0.012-0.813,0.023-1.219,0.033c-1.436,0.032-2.875,0.055-4.316,0.055c-1.441,0-2.88-0.022-4.316-0.055
			c-0.407-0.009-0.814-0.021-1.219-0.033c-1.135-0.033-2.269-0.077-3.401-0.13c-0.335-0.016-0.67-0.028-1.004-0.045
			c-1.421-0.075-2.84-0.165-4.255-0.272c-0.298-0.022-0.595-0.049-0.891-0.074c-1.156-0.093-2.309-0.196-3.461-0.31
			c-0.399-0.039-0.796-0.079-1.194-0.121c-1.325-0.139-2.649-0.291-3.968-0.458c-0.096-0.012-0.193-0.022-0.29-0.035
			c-1.413-0.183-2.821-0.386-4.227-0.601c-0.376-0.058-0.752-0.118-1.128-0.178c-1.112-0.177-2.223-0.364-3.33-0.561
			c-0.337-0.061-0.674-0.117-1.011-0.18c-1.392-0.255-2.781-0.526-4.166-0.814c-0.25-0.052-0.499-0.108-0.749-0.161
			c-1.156-0.245-2.307-0.502-3.458-0.769c-0.395-0.092-0.788-0.185-1.183-0.279c-1.206-0.289-2.41-0.588-3.61-0.902
			c-0.183-0.047-0.365-0.092-0.548-0.14c-1.36-0.359-2.715-0.738-4.067-1.129c-0.376-0.109-0.751-0.222-1.126-0.333
			c-0.513-0.151-1.028-0.298-1.538-0.455c0.756,44.222,20.455,86.416,54.141,115.261c33.685-28.845,53.385-71.039,54.143-115.261
			C309.631,346.057,309.117,346.204,308.604,346.356z"/>
	</g>
</g>
<g>
	<g>
		<path d="M289.37,265.857c-8.877-15.374-20.073-28.874-33.371-40.251c-13.298,11.376-24.494,24.875-33.371,40.251
			c-8.876,15.374-14.969,31.819-18.173,49.024c16.502,5.827,33.79,8.773,51.544,8.773c17.754,0,35.045-2.945,51.546-8.773
			C304.339,297.676,298.247,281.232,289.37,265.857z"/>
	</g>
</g>
<g>
</g>
<g>
</g>
<g>
</g>
<g>
</g>
<g>
</g>
<g>
</g>
<g>
</g>
<g>
</g>
<g>
</g>
<g>
</g>
<g>
</g>
<g>
</g>
<g>
</g>
<g>
</g>
<g>
</g>
</svg>
